<?xml version="1.0" encoding="UTF-8"?><svg id="Layer_1" xmlns="http://www.w3.org/2000/svg" xmlns:xlink="http://www.w3.org/1999/xlink" viewBox="0 0 180.27 57.53"><defs><style>.cls-1{fill:none;}.cls-2{clip-path:url(#clippath);}.cls-3{fill:#015f60;}</style><clipPath id="clippath"><rect class="cls-1" width="180.27" height="57.53"/></clipPath></defs><g class="cls-2"><g id="Group_1"><path id="Path_1" class="cls-3" d="m16.82,20.85L25.48,1.16h7.46v1.27c-.58,0-1.16.09-1.72.27-.41.14-.77.42-1,.78-.26.46-.42.98-.47,1.52-.09.82-.13,1.64-.12,2.46v13.06c0,1.11.04,32.71.13,33.35.05.53.23,1.05.52,1.5.27.36.66.61,1.1.7.62.13,1.25.19,1.88.2v1.27h-10.79v-1.27c.63,0,1.26-.08,1.88-.22.44-.1.83-.34,1.12-.68.3-.42.48-.91.53-1.42.09-.61.13-32.16.13-33.2V5.3h-.33l-9.73,21.85h-.73L5.8,5.3h-.13v15.22c-.01.88.03,1.76.13,2.63.05.53.23,1.05.52,1.5.27.36.66.61,1.1.7.62.13,1.25.19,1.88.2v1.27H0v-1.27c.63,0,1.26-.08,1.88-.22.44-.1.83-.34,1.12-.68.3-.42.48-.91.53-1.42.1-.82.15-1.65.13-2.48V7.23c0-.77-.03-1.55-.12-2.31-.05-.51-.21-1.01-.47-1.45-.24-.36-.6-.63-1.02-.75-.56-.16-1.14-.26-1.73-.28v-1.27h7.96l8.39,19.68h.13Z"/><path id="Path_2" class="cls-3" d="m46.43,15.52v-1.36c0-2.71-1.15-4.06-3.46-4.06-.32,0-.65.03-.96.1-.25.06-.47.17-.67.33-.2.19-.37.41-.48.67-.17.34-.3.7-.42,1.07-.14.47-.39.91-.72,1.28-.76.55-1.82.37-2.36-.39-.2-.28-.31-.61-.32-.96.02-1.09.69-2.07,1.7-2.48,1.52-.67,3.17-.97,4.83-.88,2.22,0,3.8.39,4.73,1.18.93.79,1.4,2.13,1.4,4.01v7.46c0,2.53.5,3.8,1.5,3.8.3,0,.61-.04.9-.12.32-.1.58-.32.73-.62l.47.8c-.34.57-.86,1.02-1.47,1.28-.69.34-1.46.52-2.23.52-.84.06-1.65-.28-2.18-.93-.52-.77-.77-1.7-.72-2.63h-.17c-.55,1.06-1.38,1.95-2.4,2.58-1.02.63-2.2.96-3.4.95-1.19.07-2.37-.31-3.3-1.06-.81-.73-1.25-1.78-1.2-2.86,0-.52.09-1.04.28-1.53.21-.52.52-1,.92-1.4.5-.51,1.06-.95,1.66-1.32.82-.5,1.67-.94,2.55-1.32l4.8-2.1Zm0,1.43c-1.1.42-2.17.89-3.21,1.44-.76.39-1.47.85-2.11,1.4-.47.39-.86.86-1.15,1.4-.23.44-.35.93-.35,1.43-.02.68.24,1.33.73,1.8.53.48,1.22.73,1.93.7.57,0,1.13-.15,1.61-.43.51-.3.96-.7,1.32-1.18.4-.53.7-1.13.9-1.76.22-.69.34-1.42.33-2.15v-2.64Z"/><path id="Path_3" class="cls-3" d="m60.55,23.55c.53.04,1.02.09,1.47.13l1.32.13c.43.04.87.1,1.3.17.43.07.91.13,1.42.2,1.45.17,2.8.82,3.85,1.85.97.99,1.49,2.33,1.45,3.71.08,1.71-.77,3.34-2.21,4.26-1.95,1.1-4.18,1.6-6.41,1.47-1.15,0-2.29-.1-3.41-.33-.92-.18-1.82-.5-2.65-.95-.67-.36-1.26-.87-1.71-1.48-.4-.55-.62-1.22-.62-1.9,0-.44.07-.88.23-1.3.15-.38.36-.74.63-1.05.27-.3.59-.54.95-.72.36-.18.75-.27,1.15-.27.74,0,1.45.24,2.03.7-.6.13-1.12.48-1.46.98-.38.52-.57,1.14-.57,1.78,0,.97.56,1.86,1.45,2.26,1.28.6,2.7.88,4.11.8,3.8,0,5.7-1.17,5.7-3.5.02-.83-.3-1.63-.9-2.22-.57-.58-1.32-.95-2.13-1.05-.53-.07-1.08-.14-1.65-.22-.57-.08-1.12-.15-1.67-.21-.54-.07-1.05-.12-1.51-.17-.47-.04-.84-.09-1.13-.13-1.02-.05-2-.4-2.83-1-.65-.54-1.01-1.36-.97-2.2,0-.8.36-1.55.97-2.07.68-.62,1.53-1.01,2.43-1.14v-.13c-.5-.21-.96-.49-1.37-.85-.42-.36-.78-.78-1.08-1.25-.3-.47-.54-.98-.72-1.51-.18-.54-.27-1.11-.27-1.68,0-.8.16-1.6.48-2.33.32-.71.78-1.34,1.37-1.85.61-.54,1.32-.95,2.08-1.23.84-.31,1.73-.46,2.63-.45.94,0,1.87.15,2.76.45.83.28,1.59.73,2.23,1.32.61-.53,1.28-.98,2-1.35.51-.26,1.06-.4,1.63-.42.68-.03,1.36.16,1.92.55.47.35.73.9.72,1.48.02.34-.13.67-.38.9-.26.23-.6.34-.95.33-.27.01-.53-.05-.77-.17-.19-.1-.37-.22-.55-.35-.17-.12-.34-.24-.52-.35-.2-.12-.43-.18-.67-.17-.59.02-1.16.22-1.63.57.56.93.84,2.01.8,3.1.09,1.67-.56,3.29-1.77,4.45-1.51,1.2-3.37,1.87-5.3,1.88-.96.05-1.9.19-2.83.43-.46.09-.8.49-.8.97,0,.36.25.68.6.78.57.2,1.17.3,1.77.31m1.83-3.9c.91.02,1.75-.47,2.18-1.27.58-1.09.85-2.33.78-3.56.07-1.22-.2-2.44-.78-3.51-.45-.79-1.3-1.27-2.22-1.25-.93-.01-1.8.47-2.28,1.27-.62,1.04-.92,2.25-.85,3.46-.06,1.24.24,2.46.87,3.53.47.83,1.35,1.34,2.3,1.33"/><path id="Path_4" class="cls-3" d="m80.5,23.55c.53.04,1.02.09,1.47.13l1.32.13c.43.04.87.1,1.3.17.43.07.91.13,1.41.2,1.45.17,2.8.82,3.85,1.85.97.99,1.49,2.33,1.45,3.71.08,1.71-.77,3.34-2.21,4.26-1.95,1.1-4.18,1.6-6.41,1.47-1.15,0-2.29-.1-3.41-.33-.92-.18-1.82-.5-2.65-.95-.67-.36-1.26-.87-1.71-1.48-.4-.55-.62-1.22-.62-1.9,0-.44.07-.88.23-1.3.15-.38.36-.74.63-1.05.27-.3.59-.54.95-.72.36-.18.75-.27,1.15-.27.74,0,1.45.24,2.03.7-.6.13-1.12.48-1.46.98-.38.52-.58,1.14-.57,1.78,0,.97.56,1.86,1.45,2.26,1.28.6,2.7.88,4.11.8,3.8,0,5.7-1.17,5.7-3.5.02-.83-.3-1.64-.9-2.22-.57-.58-1.32-.95-2.13-1.05-.53-.07-1.08-.14-1.65-.22-.57-.08-1.12-.15-1.67-.22-.54-.07-1.05-.12-1.51-.17-.47-.04-.84-.09-1.13-.13-1.02-.05-2-.4-2.83-1-.65-.54-1.01-1.36-.97-2.2,0-.8.36-1.55.97-2.07.68-.61,1.52-1.01,2.43-1.13v-.13c-.5-.21-.96-.49-1.37-.85-.42-.36-.78-.78-1.08-1.25-.3-.47-.54-.98-.72-1.51-.18-.54-.27-1.11-.27-1.68,0-.8.16-1.6.48-2.33.32-.71.78-1.34,1.37-1.85.61-.54,1.32-.95,2.08-1.23.84-.31,1.73-.46,2.63-.45.94,0,1.87.15,2.76.45.83.28,1.59.73,2.23,1.32.61-.53,1.28-.98,2-1.35.51-.26,1.06-.4,1.63-.42.68-.03,1.36.16,1.91.55.47.35.73.9.72,1.48.02.34-.13.67-.38.9-.26.23-.6.34-.95.33-.27.01-.53-.05-.77-.17-.19-.1-.37-.22-.55-.35-.17-.12-.34-.24-.52-.35-.2-.12-.43-.18-.67-.17-.59.02-1.16.22-1.63.57.56.93.84,2.01.8,3.1.09,1.67-.56,3.29-1.77,4.45-1.51,1.2-3.37,1.87-5.3,1.88-.96.05-1.9.19-2.83.43-.46.09-.8.49-.8.97,0,.36.25.68.6.78.57.2,1.16.31,1.76.32m1.83-3.9c.91.02,1.75-.47,2.18-1.27.58-1.09.85-2.33.78-3.56.07-1.22-.2-2.44-.78-3.51-.45-.79-1.3-1.27-2.22-1.25-.93-.01-1.8.47-2.28,1.27-.62,1.04-.92,2.25-.85,3.46-.06,1.24.24,2.46.87,3.53.47.83,1.35,1.34,2.3,1.33"/><path id="Path_5" class="cls-3" d="m100.74,21.51c-.01.7.03,1.39.12,2.08.05.44.2.86.45,1.23.23.31.56.52.93.62.52.13,1.06.19,1.6.2v1.17h-9.56v-1.17c.55,0,1.1-.08,1.63-.22.38-.1.72-.31.98-.6.26-.34.42-.74.47-1.16.09-.63.13-1.27.12-1.92v-4.26c0-1.29-.02-2.35-.05-3.18,0-.58-.06-1.15-.18-1.72-.07-.45-.35-.84-.76-1.05-.73-.24-1.5-.33-2.26-.28v-1.17l6.52-1.26v12.69Zm-3.83-19.45c-.01-.55.21-1.08.6-1.47.81-.8,2.12-.8,2.93,0,.39.39.61.92.6,1.47.01.55-.21,1.08-.6,1.47-.81.8-2.12.8-2.93,0-.39-.38-.61-.92-.6-1.47"/><path id="Path_6" class="cls-3" d="m121.9,23.71c-1.67,2.18-4.28,3.45-7.03,3.43-1.22.02-2.43-.2-3.56-.65-1.03-.41-1.97-1.04-2.75-1.83-.78-.81-1.39-1.78-1.78-2.83-.43-1.17-.65-2.4-.63-3.65-.01-1.29.21-2.56.67-3.76.41-1.11,1.06-2.12,1.88-2.96.83-.83,1.81-1.49,2.9-1.93,1.17-.48,2.42-.71,3.68-.7,1.83-.12,3.64.51,5,1.75,1.25,1.36,1.89,3.17,1.77,5.01,0,.31-.06.5-.18.57-.27.09-.56.12-.85.1h-10.97c-.05.21-.08.43-.1.65-.02.26-.03.54-.03.85-.01,1.06.13,2.12.41,3.15.24.87.65,1.69,1.2,2.42.5.65,1.14,1.18,1.87,1.55.75.37,1.58.56,2.41.55.9,0,1.8-.2,2.6-.62.93-.52,1.77-1.2,2.46-2.01l1.03.93Zm-5.5-8.99c.44,0,.8-.01,1.07-.03.21,0,.41-.05.6-.13.12-.06.22-.16.27-.28.05-.16.07-.32.07-.48.04-.92-.32-1.81-.98-2.45-.74-.64-1.7-.97-2.68-.92-2.4,0-3.89,1.43-4.46,4.3h6.13Z"/><path id="Path_7" class="cls-3" d="m51.75,32.12h.88l.28,7.21h-1.16c-.37-1.7-1.31-3.23-2.67-4.33-1.36-1.06-3.04-1.61-4.77-1.57-1.18-.02-2.35.24-3.42.75-1.01.51-1.88,1.25-2.54,2.16-.74,1.04-1.27,2.21-1.58,3.45-.38,1.51-.57,3.06-.55,4.61,0,3.37.7,5.95,2.1,7.76,1.47,1.84,3.74,2.85,6.08,2.71,4.03,0,6.63-2.14,7.78-6.43h1.29v7.81h-1.1l-.72-2.48c-2.23,1.87-5.06,2.87-7.97,2.79-1.64.02-3.28-.26-4.81-.85-1.38-.53-2.63-1.35-3.67-2.4-1.04-1.08-1.84-2.37-2.35-3.78-.57-1.59-.85-3.27-.83-4.96-.02-1.77.28-3.54.88-5.21.54-1.5,1.38-2.87,2.46-4.05,1.06-1.13,2.36-2.03,3.8-2.62,1.55-.63,3.21-.95,4.88-.92,1.2,0,2.4.17,3.54.53,1.26.43,2.47,1.01,3.6,1.73l.56-1.94Z"/><path id="Path_8" class="cls-3" d="m66.24,45.64v-1.29c0-2.55-1.09-3.83-3.26-3.83-.31,0-.61.03-.91.1-.23.05-.45.16-.63.31-.19.18-.35.39-.46.63-.16.32-.29.66-.39,1-.14.45-.37.86-.67,1.21-.72.51-1.72.34-2.23-.38-.18-.26-.29-.57-.29-.89.02-1.03.65-1.95,1.6-2.34,1.43-.63,2.99-.91,4.55-.83,2.09,0,3.58.37,4.45,1.11.98,1,1.46,2.39,1.32,3.78v7.03c0,2.38.47,3.57,1.41,3.57.29,0,.57-.04.85-.11.3-.09.55-.3.69-.58l.44.75c-.32.54-.8.97-1.38,1.21-.65.32-1.37.49-2.1.49-.79.06-1.55-.27-2.06-.88-.49-.73-.73-1.6-.67-2.48h-.16c-.52,1-1.3,1.84-2.26,2.43-.96.6-2.07.91-3.2.89-1.12.06-2.23-.29-3.1-1-.76-.69-1.17-1.68-1.13-2.7,0-.49.09-.98.27-1.44.2-.49.49-.94.86-1.32.47-.48,1-.89,1.57-1.24.76-.47,1.56-.88,2.38-1.24l4.51-1.98Zm0,1.35c-1.03.39-2.05.84-3.03,1.35-.71.36-1.38.8-1.99,1.32-.44.37-.81.81-1.08,1.32-.21.42-.33.88-.33,1.35-.02.64.23,1.25.69,1.69.49.45,1.15.69,1.82.66.53,0,1.06-.14,1.52-.41.48-.28.91-.66,1.24-1.11.37-.5.66-1.07.85-1.66.21-.65.32-1.34.31-2.02v-2.48Z"/><path id="Path_9" class="cls-3" d="m79.6,51.25c0,.88.02,1.57.06,2.07.01.4.13.8.33,1.14.18.26.46.45.77.52.46.1.94.17,1.41.19v1.1h-8.34v-1.1c.49-.02.97-.09,1.44-.19.32-.06.61-.24.82-.5.21-.32.34-.7.36-1.08.06-.63.09-1.27.08-1.9v-4.01c0-1.19-.02-2.18-.05-2.98,0-.55-.06-1.09-.17-1.63-.05-.22-.12-.44-.22-.64-.09-.17-.24-.3-.41-.38-.23-.11-.48-.17-.74-.19-.3-.03-.7-.05-1.18-.05v-1.1l5.11-1.19.41,3.14h.16c.82-.97,1.83-1.78,2.96-2.37,1.07-.52,2.25-.78,3.43-.77,1.16-.04,2.31.24,3.32.8.88.51,1.55,1.33,1.88,2.3h.12c.75-.97,1.72-1.75,2.82-2.29,1.1-.54,2.32-.82,3.54-.82.92-.01,1.83.15,2.68.49.72.26,1.36.73,1.84,1.33.41.56.69,1.21.8,1.9.18,1.06.26,2.14.24,3.21v4.99c0,.86.03,1.54.08,2.04.02.41.14.8.33,1.16.17.28.45.47.77.53.47.1.95.16,1.43.19v1.1h-8.34v-1.1c.48,0,.95-.06,1.41-.17.33-.07.62-.26.82-.53.21-.32.33-.7.36-1.08.06-.63.09-1.25.08-1.88v-3.94c.01-1.01-.05-2.02-.19-3.03-.09-.7-.3-1.38-.63-2.01-.26-.48-.66-.87-1.15-1.11-.54-.24-1.12-.36-1.71-.34-.92,0-1.82.27-2.59.77-.8.51-1.46,1.22-1.9,2.05-.1.2-.19.4-.27.61-.08.21-.14.43-.17.66-.05.29-.07.57-.08.86-.01.33-.02.75-.02,1.25v3.98c0,.86.02,1.54.06,2.04.01.41.13.81.33,1.16.18.28.47.47.8.53.48.1.96.16,1.44.19v1.1h-8.34v-1.1c.47-.03.95-.09,1.41-.19.32-.06.61-.24.8-.5.2-.33.32-.7.35-1.08.06-.63.09-1.27.08-1.9v-3.95c.01-1.02-.05-2.04-.19-3.06-.09-.7-.29-1.38-.61-2.01-.24-.48-.63-.86-1.11-1.1-.53-.23-1.11-.35-1.69-.33-1.92.02-3.66,1.11-4.51,2.83-.1.2-.19.4-.27.61-.08.21-.13.43-.17.66-.05.29-.07.57-.08.86,0,.33-.01.75-.01,1.25v3.98Z"/><path id="Path_10" class="cls-3" d="m122.69,53.35c-1.58,2.06-4.03,3.25-6.62,3.23-1.15.02-2.29-.19-3.35-.61-.97-.39-1.86-.97-2.59-1.72-.74-.76-1.31-1.67-1.68-2.67-.41-1.1-.61-2.26-.6-3.43-.01-1.21.2-2.41.63-3.54.39-1.04.99-1.99,1.77-2.79.78-.78,1.71-1.4,2.73-1.82,1.1-.45,2.28-.67,3.46-.66,3.17-.35,6.02,1.93,6.37,5.1.05.42.05.85,0,1.27,0,.29-.06.47-.17.53-.26.08-.53.12-.8.09h-10.31c-.05.2-.08.41-.09.61-.02.24-.03.51-.03.8-.01,1,.12,2,.39,2.96.23.82.61,1.59,1.13,2.27.47.61,1.07,1.11,1.76,1.46.71.35,1.49.53,2.27.52.85,0,1.69-.19,2.45-.58.88-.49,1.67-1.13,2.32-1.9l.97.88Zm-5.17-8.47c.42,0,.75-.01,1-.03.19,0,.39-.05.57-.12.12-.05.21-.15.25-.27.05-.15.07-.3.06-.46.04-.87-.3-1.71-.93-2.31-.7-.6-1.6-.91-2.52-.86-2.26,0-3.66,1.35-4.2,4.05h5.77Z"/><path id="Path_11" class="cls-3" d="m131.25,51.28c0,.86.02,1.54.06,2.04.01.4.13.8.33,1.14.18.26.46.45.77.52.46.1.94.17,1.41.19v1.1h-8.34v-1.1c.49,0,.97-.06,1.44-.17.32-.07.61-.26.82-.52.21-.32.34-.7.36-1.08.06-.63.09-1.27.08-1.9v-3.67c0-1.42-.02-2.53-.05-3.32,0-.6-.1-1.2-.31-1.76-.15-.35-.46-.6-.83-.67-.52-.08-1.04-.12-1.57-.11v-1.1l5.49-1.19.44,3.89h.12c.27-.62.61-1.2,1.02-1.72.38-.5.83-.95,1.33-1.33.46-.35.97-.64,1.51-.86.51-.21,1.05-.31,1.6-.31.57-.03,1.13.14,1.58.49.38.32.6.8.58,1.3.02.44-.15.87-.47,1.18-.38.31-.86.46-1.35.42-.29,0-.57-.03-.85-.12-.21-.07-.41-.16-.61-.27l-.5-.27c-.16-.08-.34-.13-.52-.12-.7.08-1.33.48-1.69,1.08-.61.82-1.06,1.75-1.32,2.74-.18.67-.31,1.36-.39,2.06-.1.8-.14,1.6-.14,2.4v1.07Z"/><path id="Path_12" class="cls-3" d="m149.1,39.33c2.3,0,4.51.85,6.19,2.42.81.76,1.46,1.67,1.91,2.68.48,1.07.72,2.23.71,3.4.03,2.36-.92,4.63-2.62,6.27-.81.78-1.76,1.4-2.81,1.82-2.16.87-4.57.88-6.73.02-1.03-.41-1.98-1.02-2.77-1.8-.81-.79-1.45-1.73-1.88-2.78-.47-1.12-.7-2.32-.69-3.53-.01-1.18.22-2.34.69-3.42.44-1.02,1.08-1.94,1.88-2.7.8-.76,1.75-1.35,2.77-1.76,1.06-.42,2.2-.63,3.34-.63m0,1.5c-.74,0-1.46.16-2.12.5-.65.34-1.21.83-1.63,1.43-.48.67-.83,1.43-1.04,2.23-.25.94-.37,1.9-.36,2.87-.01.99.11,1.99.36,2.95.21.8.56,1.56,1.04,2.24.42.6.97,1.09,1.62,1.43.66.34,1.39.51,2.13.5.75.01,1.49-.16,2.16-.5.66-.34,1.23-.84,1.66-1.44.49-.68.85-1.45,1.07-2.26.26-.95.39-1.93.38-2.92.01-.96-.12-1.93-.38-2.85-.22-.79-.58-1.54-1.07-2.21-.44-.6-1.01-1.09-1.66-1.44-.67-.35-1.41-.53-2.16-.52"/><path id="Path_13" class="cls-3" d="m166.19,51.34c0,.86.02,1.53.06,2.02.01.4.13.79.33,1.13.19.27.47.45.78.52.47.1.95.16,1.43.19v1.07h-8.22v-1.07c.47-.02.94-.09,1.4-.19.32-.07.6-.24.8-.5.21-.32.34-.69.36-1.07.06-.63.09-1.25.08-1.88v-4.17c.05-1.52-.01-3.04-.19-4.55-.05-.23-.13-.46-.23-.68-.09-.18-.24-.32-.42-.41-.23-.1-.47-.17-.72-.19-.38-.04-.75-.05-1.13-.05v-1l5.02-1.19.38,3.1h.13c.76-.95,1.71-1.73,2.79-2.29,1.08-.55,2.27-.83,3.48-.82.9-.01,1.79.15,2.63.47.71.25,1.34.7,1.82,1.29.39.56.64,1.2.75,1.87.17,1.04.24,2.1.22,3.15v5.24c0,.68.02,1.35.08,2.02.02.4.14.78.33,1.13.18.27.45.45.77.52.45.1.91.16,1.36.19v1.07h-8.13v-1.07c.47,0,.94-.06,1.4-.17.31-.07.59-.26.78-.52.2-.33.32-.7.35-1.08.06-.62.09-1.24.08-1.87v-4.14c.01-1.01-.05-2.01-.19-3.01-.08-.69-.29-1.36-.61-1.98-.25-.47-.64-.85-1.11-1.08-.52-.23-1.09-.35-1.66-.33-.92,0-1.81.25-2.59.74-.79.49-1.42,1.19-1.83,2.02-.11.21-.19.41-.27.6-.08.21-.14.43-.17.66-.05.29-.08.57-.09.86-.02.32-.03.74-.03,1.24v4.2Z"/></g></g></svg>